<svg width="28" height="29" viewBox="0 0 28 29" fill="none" xmlns="http://www.w3.org/2000/svg">
<path d="M10.6677 9.94793C10.3361 9.61631 9.78159 9.61631 9.44997 9.94793C9.11292 10.285 9.11836 10.8341 9.44997 11.1657L12.7825 14.4982L9.44997 17.8307C9.11836 18.1623 9.11836 18.7169 9.44997 19.0485C9.78159 19.3801 10.3361 19.3801 10.6677 19.0485L14.0002 15.716L17.3328 19.0485C17.6644 19.3801 18.2135 19.3855 18.5505 19.0485C18.8821 18.7169 18.8821 18.1623 18.5505 17.8307L15.218 14.4982L18.5505 11.1657C18.8821 10.8341 18.8821 10.2796 18.5505 9.94793C18.2189 9.61631 17.6644 9.61631 17.3328 9.94793L14.0002 13.2805L10.6677 9.94793Z" fill="#C0C4CC"/>
</svg>
