<svg width="16" height="17" viewBox="0 0 16 17" fill="none" xmlns="http://www.w3.org/2000/svg">
<rect y="0.5" width="16" height="16" rx="8" fill="#C0C4CC" fill-opacity="0.01"/>
<path d="M6.17328 1.25H1.54169C0.828308 1.25 0.25 1.82831 0.25 2.54169V14.1666C0.25 14.88 0.828308 15.4583 1.54169 15.4583H14.4583C15.1717 15.4583 15.75 14.88 15.75 14.1666V4.375C15.75 3.66162 15.1717 3.08331 14.4583 3.08331H9.29169L7.08667 1.6283C6.75 1.375 6.51587 1.25 6.17328 1.25Z" fill="#538CFF"/>
<g filter="url(#filter0_i_2_325)">
<path d="M1.54169 5H14.4583C15.1717 5 15.75 5.49744 15.75 6.11108V14.3889C15.75 15.0026 15.1717 15.5 14.4583 15.5H1.54169C0.828308 15.5 0.25 15.0026 0.25 14.3889V6.11108C0.25 5.49744 0.828308 5 1.54169 5Z" fill="url(#paint0_linear_2_325)"/>
</g>
<defs>
<filter id="filter0_i_2_325" x="0.25" y="5" width="15.5" height="10.5" filterUnits="userSpaceOnUse" color-interpolation-filters="sRGB">
<feFlood flood-opacity="0" result="BackgroundImageFix"/>
<feBlend mode="normal" in="SourceGraphic" in2="BackgroundImageFix" result="shape"/>
<feColorMatrix in="SourceAlpha" type="matrix" values="0 0 0 0 0 0 0 0 0 0 0 0 0 0 0 0 0 0 127 0" result="hardAlpha"/>
<feOffset dy="1"/>
<feComposite in2="hardAlpha" operator="arithmetic" k2="-1" k3="1"/>
<feColorMatrix type="matrix" values="0 0 0 0 1 0 0 0 0 1 0 0 0 0 1 0 0 0 1 0"/>
<feBlend mode="normal" in2="shape" result="effect1_innerShadow_2_325"/>
</filter>
<linearGradient id="paint0_linear_2_325" x1="15.75" y1="5" x2="15.75" y2="15.5" gradientUnits="userSpaceOnUse">
<stop stop-color="#99BBFF"/>
<stop offset="1" stop-color="#0055FF"/>
</linearGradient>
</defs>
</svg>
