<svg width="80" height="81" viewBox="0 0 80 81" fill="none" xmlns="http://www.w3.org/2000/svg">
<path d="M17.7778 0.5C7.95938 0.5 0 8.45938 0 18.2778V62.7222C0 72.5406 7.95938 80.5 17.7778 80.5H62.2222C72.0406 80.5 80 72.5406 80 62.7222V18.2778C80 8.45938 72.0406 0.5 62.2222 0.5H17.7778Z" fill="#1730F1"/>
<path fill-rule="evenodd" clip-rule="evenodd" d="M41.5293 15.4538C37.2056 15.1971 27.0854 15.7733 21.1935 20.1324C13.8286 25.5813 14.1197 36.6433 14.1197 40.0529C14.1197 43.4624 14.6195 54.859 22.5918 59.8154C30.5642 64.7718 36.0815 64.1846 37.0369 64.1846C37.9923 64.1846 44.8574 63.8626 49.5459 63.8626C54.2344 63.8626 57.2588 66.2493 58.9545 65.7063C60.6502 65.1633 60.144 62.8767 59.9226 61.7412C59.3202 58.6527 59.9226 57.9276 59.9226 57.9276C64.1934 52.5355 65.8828 50.6034 65.8828 39.7182C65.8828 28.0375 63.3709 15.4538 41.5293 15.4538ZM17.916 39.6551C17.916 20.606 31.4247 19.2548 40.7637 19.2548C59.4417 19.6842 62.0105 28.1574 62.0105 40.0529C62.0105 49.5692 58.3914 53.893 56.2528 55.6419C56.1262 57.6993 56.6514 60.0036 57.0057 61.8927C49.4004 58.8683 43.4085 60.39 39.0743 60.39C31.5512 60.39 17.916 58.3632 17.916 39.6551Z" fill="white"/>
<path d="M40.4891 35.9479C40.5384 35.8894 40.5137 35.8005 40.4399 35.7808C39.3649 35.4936 33.0364 33.8032 31.9791 33.5135C30.8228 33.1968 31.088 32.5144 31.8592 32.4623C38.3973 32.0212 44.9347 31.5669 51.4742 31.1466C52.7978 31.0614 52.9521 31.9044 51.9324 32.8917C48.7659 35.9574 45.6611 39.1127 42.3943 42.071C41.426 42.8889 41.0878 42.6785 41.3375 41.6511L42.1849 38.4885C42.1931 38.4581 42.1604 38.4331 42.1332 38.4488V38.4488C42.1296 38.4509 42.1257 38.4523 42.1216 38.453L40.6522 38.7102C40.5562 38.727 40.4916 38.6147 40.5544 38.5401L40.7473 38.3111C40.7932 38.2565 40.772 38.1728 40.7099 38.1378C40.5486 38.0472 40.4089 37.9134 40.3097 37.7416C40.2099 37.5688 40.164 37.3796 40.1667 37.1935C40.1678 37.1222 40.106 37.0617 40.0358 37.074L39.7377 37.1262C39.6417 37.143 39.5771 37.0307 39.6399 36.9562L40.4891 35.9479Z" fill="#73CD59"/>
<path d="M39.1671 45.4994C39.1178 45.5579 39.1425 45.6468 39.2164 45.6665C40.2914 45.9536 46.6199 47.6441 47.6772 47.9337C48.8334 48.2504 48.5683 48.9329 47.797 48.9849C41.2589 49.4261 34.7216 49.8804 28.1821 50.3007C26.8585 50.3858 26.7042 49.5429 27.7239 48.5555C30.8904 45.4899 33.9951 42.3346 37.262 39.3763C38.2303 38.5584 38.5685 38.7688 38.3187 39.7962L37.4713 42.9588C37.4632 42.9891 37.4958 43.0142 37.5231 42.9985V42.9985C37.5266 42.9964 37.5306 42.995 37.5346 42.9943L39.0041 42.7371C39.1001 42.7203 39.1647 42.8326 39.1019 42.9071L38.9089 43.1362C38.863 43.1907 38.8842 43.2745 38.9464 43.3094C39.1076 43.4001 39.2473 43.5339 39.3465 43.7056C39.4463 43.8785 39.4923 44.0677 39.4895 44.2538C39.4885 44.3251 39.5502 44.3855 39.6205 44.3732L39.9186 44.3211C40.0146 44.3043 40.0792 44.4165 40.0164 44.4911L39.1671 45.4994Z" fill="#1730F1"/>
<path d="M39.1671 45.4994C39.1178 45.5579 39.1425 45.6468 39.2164 45.6665C40.2914 45.9536 46.6199 47.6441 47.6772 47.9337C48.8334 48.2504 48.5683 48.9329 47.797 48.9849C41.2589 49.4261 34.7216 49.8804 28.1821 50.3007C26.8585 50.3858 26.7042 49.5429 27.7239 48.5555C30.8904 45.4899 33.9951 42.3346 37.262 39.3763C38.2303 38.5584 38.5685 38.7688 38.3187 39.7962L37.4713 42.9588C37.4632 42.9891 37.4958 43.0142 37.5231 42.9985V42.9985C37.5266 42.9964 37.5306 42.995 37.5346 42.9943L39.0041 42.7371C39.1001 42.7203 39.1647 42.8326 39.1019 42.9071L38.9089 43.1362C38.863 43.1907 38.8842 43.2745 38.9464 43.3094C39.1076 43.4001 39.2473 43.5339 39.3465 43.7056C39.4463 43.8785 39.4923 44.0677 39.4895 44.2538C39.4885 44.3251 39.5502 44.3855 39.6205 44.3732L39.9186 44.3211C40.0146 44.3043 40.0792 44.4165 40.0164 44.4911L39.1671 45.4994Z" fill="white"/>
</svg>
